<?xml version="1.0" encoding="utf-8"?>
<!-- Generator: Adobe Illustrator 19.1.0, SVG Export Plug-In . SVG Version: 6.00 Build 0)  -->
<svg version="1.1" xmlns="http://www.w3.org/2000/svg" xmlns:xlink="http://www.w3.org/1999/xlink" x="0px" y="0px" width="630.9px"
	 height="358.5px" viewBox="0 0 630.9 358.5" enable-background="new 0 0 630.9 358.5" xml:space="preserve">
<g id="FAU_GRAY_x2F_SILVER">
	<path fill="#C3C8CD" d="M418.9,224.8c-23.7,0-44.9-8.2-59-21.1c5.2-2.5,10.5-5.2,15.8-7.9c9.6,11.1,26.1,18.3,44.8,18.3
		c29.7,0,53.8-18.4,53.8-41c0-8.8-3.6-16.9-9.8-23.6c11.1-5.9,17.9-9.6,17.9-9.6c1.3-0.6,2.5-1.3,3.7-1.9c6,8.4,9.5,18,9.5,28.2
		C495.7,198.6,461.3,224.8,418.9,224.8z M319.6,197.6l-1.5,105.9c-13.7-20-23-40.8-23-58.9c0-13,4.2-24.4,10.3-34.2
		c-10.2,10.3-19.6,24.9-19.6,43.6c0,22.7,15.8,46.6,32.1,64.7c17-18.2,33.6-42,33.6-64.7C351.5,224.3,319.6,197.6,319.6,197.6z
		 M151.8,140c-1.3-0.6-2.5-1.3-3.7-1.9c-6,8.4-9.5,18-9.5,28.2c0,32.3,34.4,58.6,76.8,58.6c23.7,0,44.9-8.2,59-21.1
		c-5.2-2.6-10.5-5.2-15.8-7.9c-9.6,11.1-26.1,18.3-44.8,18.3c-29.7,0-53.8-18.4-53.8-41c0-8.8,3.6-16.9,9.8-23.6
		C158.6,143.7,151.8,140,151.8,140z M630.9,178.1c0,82.6-129.1,141.1-278.6,149.5c-8.5,8.7-16.3,15.5-21.5,19.8l-13.4,11.2
		l-13.3-11.2c-4.9-4.1-12.4-10.8-20.8-19.5C131.7,320.5-0.3,261.6-0.3,178.1c0-37.5,26.7-70.1,69.8-95.2
		c-11.7-22.7,1.1-42.1,1.1-42.1s5.4,8.6,12.9,11.4c-6.9-27.5,10.3-52,10.3-52s3.3,22.6,66.4,46.6C207,34.3,260.4,27.5,315.3,27.5
		c55.8,0,110,7,157.3,19.8c64.6-24.2,67.9-47.2,67.9-47.2s17.2,24.4,10.3,52c7.4-2.8,12.9-11.4,12.9-11.4s11.5,18.2,2.4,39.7h7.7
		c2.8,0,5,2.2,5,5v8.7C611.4,117.5,630.9,146,630.9,178.1z M562.8,94.1h2.5l0.8-5.5l2.2,5.5h1l2.3-5.5l0.7,5.5h2.5l-1.4-9.6h-2.5
		l-2.1,5.1l-1.9-5.1h-2.5L562.8,94.1z M555.8,84.5v2.1h2.1v7.5h2.5v-7.5h2.1v-2.1H555.8z M614.9,178.1c0-33-25.4-63.2-67.8-86.8
		c10.1-13.7,11.6-24.5,10.1-29.6c-14.5,11.6-28.2,13.5-28.2,13.5c16.9-17.5,14.1-48.2,10.7-53.5c-2.6,3.5-21.1,21.5-66.7,38.6
		l-2,0.7c-45.3-12.6-98.6-19.9-155.6-19.9c-56.1,0-108.6,7.1-153.5,19.3l-0.4-0.2c-45.7-17.1-64.1-35.2-66.7-38.6
		c-3.4,5.3-6.2,36,10.7,53.5c0,0-13.7-1.8-28.2-13.5c-1.4,4.9-0.1,15.1,9.1,28.1c-44,23.8-70.4,54.6-70.4,88.3
		c0,72,121.3,131,275.5,136.6c10,11.1,19.7,19.8,26.2,25.3c6.4-5.4,16.6-14.2,27.1-25.5C496.3,307.7,614.9,249.2,614.9,178.1z"/>
</g>
<g id="FAU_BLUE">
	<path fill="#002D62" d="M547,91.2c10.1-13.7,11.6-24.5,10.1-29.6c-14.5,11.6-28.2,13.5-28.2,13.5c16.9-17.5,14.1-48.2,10.7-53.5
		c-2.6,3.5-21.1,21.5-66.7,38.6l-2,0.7c-45.3-12.6-98.6-19.9-155.6-19.9c-56.1,0-108.6,7.1-153.5,19.3l-0.4-0.2
		c-45.7-17.1-64.1-35.2-66.7-38.6c-3.4,5.3-6.2,36,10.7,53.5c0,0-13.7-1.8-28.2-13.5c-1.4,4.9-0.1,15.1,9.1,28.1
		c-44,23.8-70.4,54.6-70.4,88.3c0,72,121.3,131,275.5,136.6c10,11.1,19.7,19.8,26.2,25.3c6.4-5.4,16.6-14.2,27.1-25.5
		c151.7-6.7,270.3-65.2,270.3-136.4C614.9,145.1,589.4,114.9,547,91.2z M442.8,92.3c53.2-15.9,86.6-46.6,86.6-46.6
		s0.5,45.2-89.1,75.7c-61,20.7-100.3,49.1-114.6,67.5C324.3,138.1,416.3,100.2,442.8,92.3z M433.4,178.9c0,8.4-8.9,15.2-19.9,15.2
		c-7.8,0-14.5-3.4-17.8-8.3c11.2-5.8,22.3-11.5,32.6-16.9C431.5,171.5,433.4,175,433.4,178.9z M104.8,45.7c0,0,33.4,30.7,86.6,46.6
		c26.5,7.9,118.5,45.8,117.1,96.5c-14.3-18.4-53.6-46.8-114.6-67.5C104.4,90.8,104.8,45.7,104.8,45.7z M213.6,214.2
		c18.7,0,35.2-7.3,44.8-18.3c5.4,2.7,10.7,5.3,15.8,7.9c-14.1,12.9-35.3,21.1-59,21.1c-42.4,0-76.8-26.2-76.8-58.6
		c0-10.2,3.4-19.8,9.5-28.2c1.2,0.6,2.5,1.3,3.7,1.9c0,0,6.8,3.7,17.9,9.6c-6.2,6.7-9.8,14.8-9.8,23.6
		C159.9,195.9,183.9,214.2,213.6,214.2z M200.8,178.9c0-3.9,1.9-7.4,5-10.1c10.3,5.4,21.4,11.2,32.6,16.9c-3.3,4.9-10,8.3-17.8,8.3
		C209.7,194.1,200.8,187.3,200.8,178.9z M69.7,177.9c0-23.9,14.4-46.1,39.1-64.7c2.1,1.7,4.2,3.3,6.6,5
		c-10,13.1-15.7,28.4-15.7,44.6c0,6.4,0.9,12.6,2.5,18.6l-17.7-8c-6.3,52.2,86.9,95.7,158.4,80.4l-10.5,20.1l26.6-9.1
		c4.3,11.1,10.4,21.6,17.2,31.1C159.1,286.8,69.7,237.4,69.7,177.9z M317.8,318.8c-16.3-18.1-32.1-42-32.1-64.7
		c0-18.7,9.4-33.3,19.6-43.6c-6.1,9.7-10.3,21.2-10.3,34.2c0,18,9.4,38.9,23,58.9l1.5-105.9c0,0,31.9,26.6,31.9,56.4
		C351.5,276.8,334.8,300.6,317.8,318.8z M375.8,195.9c9.6,11.1,26.1,18.3,44.8,18.3c29.7,0,53.8-18.4,53.8-41
		c0-8.8-3.6-16.9-9.8-23.6c11.1-5.9,17.9-9.6,17.9-9.6c1.3-0.6,2.5-1.3,3.7-1.9c6,8.4,9.5,18,9.5,28.2c0,32.3-34.4,58.6-76.8,58.6
		c-23.7,0-44.9-8.2-59-21.1C365.1,201.2,370.4,198.6,375.8,195.9z M360.4,295.4c6.7-9.1,12.7-19,17.1-29.6l23.4,8.1l-10.3-20
		c71.5,15.2,164.6-28.3,158.3-80.5l-17.7,8c1.7-6,2.5-12.2,2.5-18.6c0-16.1-5.6-31.1-15.3-44.1c1.9-1.4,3.7-2.7,5.4-4.1
		c23.6,18.4,37.3,40.1,37.3,63.3C560.9,236.4,474.5,285.1,360.4,295.4z M555.8,84.5h6.6v2.1h-2.1v7.5h-2.5v-7.5h-2.1V84.5z
		 M565.3,94.1h-2.5l1.6-9.6h2.5l1.9,5.1l2.1-5.1h2.5l1.4,9.6h-2.5l-0.7-5.5l-2.3,5.5h-1l-2.2-5.5L565.3,94.1z"/>
</g>
<g id="FAU_RED">
	<path fill="#C10435" d="M104.8,45.7c0,0,33.4,30.7,86.6,46.6c26.5,7.9,118.5,45.8,117.1,96.5c-14.3-18.4-53.6-46.8-114.6-67.5
		C104.4,90.8,104.8,45.7,104.8,45.7z M440.3,121.3c89.6-30.5,89.1-75.7,89.1-75.7S496,76.4,442.8,92.3
		c-26.5,7.9-118.5,45.8-117.1,96.5C340,170.4,379.3,142.1,440.3,121.3z"/>
</g>
<g id="WHITE">
	<path fill="#FFFFFF" d="M259,264.8c4.3,11.1,10.4,21.6,17.2,31.1c-117.1-9.1-206.5-58.5-206.5-118c0-23.9,14.4-46.1,39.1-64.7
		c2.1,1.7,4.2,3.3,6.6,5c-10,13.1-15.7,28.4-15.7,44.6c0,6.4,0.9,12.6,2.5,18.6l-17.7-8c-6.3,52.2,86.9,95.7,158.4,80.4l-10.5,20.1
		L259,264.8z M523.6,114.6c-1.7,1.3-3.5,2.7-5.4,4.1c9.8,13,15.3,28.1,15.3,44.1c0,6.4-0.9,12.6-2.5,18.6l17.7-8
		c6.3,52.2-86.8,95.6-158.3,80.5l10.3,20l-23.4-8.1c-4.4,10.5-10.4,20.5-17.1,29.6c114.1-10.3,200.6-59,200.6-117.5
		C560.9,154.7,547.3,133,523.6,114.6z M238.5,185.7c-11.2-5.8-22.3-11.5-32.6-16.9c-3.1,2.7-5,6.2-5,10.1c0,8.4,8.9,15.2,19.9,15.2
		C228.5,194.1,235.2,190.7,238.5,185.7z M395.8,185.7c3.3,4.9,10,8.3,17.8,8.3c11,0,19.9-6.8,19.9-15.2c0-3.9-1.9-7.4-5-10.1
		C418.1,174.2,407,180,395.8,185.7z"/>
</g>
</svg>
